HIERARCHY
ROOT Hip
{
	OFFSET 0 1.131 0.0052
	CHANNELS 6 Xposition Yposition Zposition Xrotation Yrotation Zrotation
	JOINT Abdomen
	{
		OFFSET 0 -0.047353 -0.05
		CHANNELS 3 Xrotation Zrotation Yrotation
		JOINT Chest
		{
			OFFSET 0 0.132153 0.007439
			CHANNELS 3 Xrotation Zrotation Yrotation
			JOINT Neck
			{
				OFFSET 0 0.3078 0.006161
				CHANNELS 3 Xrotation Zrotation Yrotation
				JOINT Head_comp
				{
					OFFSET 0 0.0884 0.013
					CHANNELS 3 Xrotation Yrotation Zrotation
					End Site
					{
						OFFSET -0 0.156 0.0624
					}
				}
			}
			JOINT Left_Collar
			{
				OFFSET 0.02282 0.250342 0.017193
				CHANNELS 2 Yrotation Zrotation
				JOINT Left_Shoulder
				{
					OFFSET 0.15421 0 0
					CHANNELS 3 Xrotation Yrotation Zrotation
					JOINT Left_Forearm
					{
						OFFSET 0.265212 0 0
						CHANNELS 2 Yrotation Xrotation
						JOINT Left_Hand
						{
							OFFSET 0.27571 0 0
							CHANNELS 2 Zrotation Yrotation
							JOINT L1ProxPhalanx
							{
								OFFSET 0.014142 0.001733 0.014142
								CHANNELS 3 Yrotation Zrotation Xrotation
								JOINT L1MidPhalanx
								{
									OFFSET 0.04 0 0
									CHANNELS 1 Zrotation
									JOINT L1DistPhalanx
									{
										OFFSET 0.035 0 0
										CHANNELS 1 Zrotation
										End Site
										{
											OFFSET 0.029 -0 -0
										}
									}
								}
							}
							JOINT L2ProxPhalanx
							{
								OFFSET 0.0821037 0.001578 0.0219996
								CHANNELS 2 Yrotation Zrotation
								JOINT L2MidPhalanx
								{
									OFFSET 0.04 0 0
									CHANNELS 1 Zrotation
									JOINT L2DistPhalanx
									{
										OFFSET 0.028 0 0
										CHANNELS 1 Zrotation
										End Site
										{
											OFFSET 0.02 -0 -0
										}
									}
								}
							}
							JOINT L3ProxPhalanx
							{
								OFFSET 0.083 0 0
								CHANNELS 2 Yrotation Zrotation
								JOINT L3MidPhalanx
								{
									OFFSET 0.053 0 0
									CHANNELS 1 Zrotation
									JOINT L3DistPhalanx
									{
										OFFSET 0.03 0 0
										CHANNELS 1 Zrotation
										End Site
										{
											OFFSET 0.023 -0 -0
										}
									}
								}
							}
							JOINT L4ProxPhalanx
							{
								OFFSET 0.077274 -0.000761 -0.0207055
								CHANNELS 2 Yrotation Zrotation
								JOINT L4MidPhalanx
								{
									OFFSET 0.05 0 0
									CHANNELS 1 Zrotation
									JOINT L4DistPhalanx
									{
										OFFSET 0.03 0 0
										CHANNELS 1 Zrotation
										End Site
										{
											OFFSET 0.023 -0 -0
										}
									}
								}
							}
							JOINT L5ProxPhalanx
							{
								OFFSET 0.0675499 -0.001644 -0.039
								CHANNELS 2 Yrotation Zrotation
								JOINT L5MidPhalanx
								{
									OFFSET 0.04 0 0
									CHANNELS 1 Zrotation
									JOINT L5DistPhalanx
									{
										OFFSET 0.021 0 0
										CHANNELS 1 Zrotation
										End Site
										{
											OFFSET 0.022 -0 -0
										}
									}
								}
							}
						}
					}
				}
			}
			JOINT Right_Collar
			{
				OFFSET -0.02282 0.250342 0.017193
				CHANNELS 2 Yrotation Zrotation
				JOINT Right_Shoulder
				{
					OFFSET -0.15421 0 0
					CHANNELS 3 Xrotation Yrotation Zrotation
					JOINT Right_Forearm
					{
						OFFSET -0.265212 0 0
						CHANNELS 2 Yrotation Xrotation
						JOINT Right_Hand
						{
							OFFSET -0.27571 3e-006 0
							CHANNELS 2 Zrotation Yrotation
							JOINT R1ProxPhalanx
							{
								OFFSET -0.014142 0.001733 0.014142
								CHANNELS 3 Yrotation Zrotation Xrotation
								JOINT R1MidPhalanx
								{
									OFFSET -0.04 0 0
									CHANNELS 1 Zrotation
									JOINT R1DistPhalanx
									{
										OFFSET -0.035 0 0
										CHANNELS 1 Zrotation
										End Site
										{
											OFFSET -0.029 -0 -0
										}
									}
								}
							}
							JOINT R2ProxPhalanx
							{
								OFFSET -0.0821037 0.001578 0.0219996
								CHANNELS 2 Yrotation Zrotation
								JOINT R2MidPhalanx
								{
									OFFSET -0.04 0 0
									CHANNELS 1 Zrotation
									JOINT R2DistPhalanx
									{
										OFFSET -0.028 0 0
										CHANNELS 1 Zrotation
										End Site
										{
											OFFSET -0.02 -0 -0
										}
									}
								}
							}
							JOINT R3ProxPhalanx
							{
								OFFSET -0.083 0 0
								CHANNELS 2 Yrotation Zrotation
								JOINT R3MidPhalanx
								{
									OFFSET -0.053 0 0
									CHANNELS 1 Zrotation
									JOINT R3DistPhalanx
									{
										OFFSET -0.03 0 0
										CHANNELS 1 Zrotation
										End Site
										{
											OFFSET -0.023 -0 -0
										}
									}
								}
							}
							JOINT R4ProxPhalanx
							{
								OFFSET -0.077274 -0.000761 -0.0207055
								CHANNELS 2 Yrotation Zrotation
								JOINT R4MidPhalanx
								{
									OFFSET -0.05 0 0
									CHANNELS 1 Zrotation
									JOINT R4DistPhalanx
									{
										OFFSET -0.03 0 0
										CHANNELS 1 Zrotation
										End Site
										{
											OFFSET -0.023 -0 -0
										}
									}
								}
							}
							JOINT R5ProxPhalanx
							{
								OFFSET -0.0675499 -0.001644 -0.039
								CHANNELS 2 Yrotation Zrotation
								JOINT R5MidPhalanx
								{
									OFFSET -0.04 0 0
									CHANNELS 1 Zrotation
									JOINT R5DistPhalanx
									{
										OFFSET -0.021 0 0
										CHANNELS 1 Zrotation
										End Site
										{
											OFFSET -0.022 -0 -0
										}
									}
								}
							}
						}
					}
				}
			}
		}
	}
	JOINT Left_Thigh
	{
		OFFSET 0.1118 -0.1612 -0.0442
		CHANNELS 3 Xrotation Zrotation Yrotation
		JOINT Left_Shin
		{
			OFFSET 0 -0.477856 0
			CHANNELS 1 Xrotation
			JOINT Left_Foot
			{
				OFFSET 0 -0.431952 0
				CHANNELS 2 Xrotation Zrotation
				JOINT Left_Toe
				{
					OFFSET 0 -0.0442 0.119
					CHANNELS 1 Xrotation
					End Site
					{
						OFFSET -0 -0 0.07
					}
				}
			}
		}
	}
	JOINT Right_Thigh
	{
		OFFSET -0.1118 -0.1612 -0.0442
		CHANNELS 3 Xrotation Zrotation Yrotation
		JOINT Right_Shin
		{
			OFFSET 0 -0.477856 0
			CHANNELS 1 Xrotation
			JOINT Right_Foot
			{
				OFFSET 0 -0.431952 0
				CHANNELS 2 Xrotation Zrotation
				JOINT Right_Toe
				{
					OFFSET 0 -0.0442 0.119
					CHANNELS 1 Xrotation
					End Site
					{
						OFFSET -0 -0 0.07
					}
				}
			}
		}
	}
}
MOTION
Frames: 13
Frame Time: 0.009975
-0.10029 -0.0602478 0.0572433 2.55931e-013 1.02467e-007 -5.10871e-006 0 0 0 0 0 0 0 0 0 0 0 0 0 0 -0 0 -0 0 0 0 0 -27.5605 -21.5864 106.421 -7.48048 -7.22872 0.359187 -7.00922 -0.766388 -1.05378 4.72541 -4.46271 -1.39298 -3.41729 8.71841 0.0688695 -13.7112 -8.22532 12.9011 1.57409 -20.5968 -30.2417 0 0 -0 0 -0 0 0 0 0 37.9386 28.008 73.698 26.2405 28.4472 13.118 18.2167 29.0248 19.6359 0 22.4358 32.6146 28.1246 -8.63175 30.7051 32.2053 23.7634 -7.83088 26.7354 35.1526 30.0193 1.13764 -0.724869 -0.0143943 0.0240216 -1.16157 0.725017 0 1.14905 -0.724866 -0.0145386 0 -1.14896 0.725017 0 
-0.10029 -0.0602478 0.0572433 2.55931e-013 1.02467e-007 -5.10871e-006 0 0 0 0 0 0 0 0 0 0 0 0 0 0 -0 0 -0 0 0 0 0 -27.5605 -21.5864 106.421 -7.48048 -7.22872 0.359187 -7.00922 -0.766388 -1.05378 4.72541 -4.46271 -1.39298 -3.41729 8.71841 0.0688695 -13.7112 -8.22532 12.9011 1.57409 -20.5968 -30.2417 0 0 -0 0 -0 0 0 0 0 37.9386 28.008 73.698 26.2405 28.4472 13.118 18.2167 29.0248 19.6359 0 22.4358 32.6146 28.1246 -8.63175 30.7051 32.2053 23.7634 -7.83088 26.7354 35.1526 30.0193 1.13764 -0.724869 -0.0143943 0.0240216 -1.16157 0.725017 0 1.14905 -0.724866 -0.0145386 0 -1.14896 0.725017 0 
-0.101417 -0.0601901 0.0548367 -3.09849e-013 8.8948e-008 -5.08333e-006 0 -0 0 0 -0 0 0 -0 0 -0.710413 0.291088 -9.06849e-006 7.50428 -33.1368 13.6503 -9.6189 -32.0242 -97.3227 -1.2695 -8.66005 0.402889 -27.6886 -21.6315 106.298 -7.61808 -7.29258 0.352484 -7.12417 -0.962557 -1.12351 4.70224 -4.60032 -1.58601 -3.49021 8.68326 -0.0918153 -13.8427 -8.2742 12.8672 1.44639 -20.6638 -30.1905 -7.50428 33.1368 13.6503 9.6189 32.0242 97.3227 -1.2695 8.66005 -0.402889 27.6886 21.6315 106.298 7.61808 7.29258 -0.352484 7.12417 0.962557 1.12351 -4.70224 4.60032 1.58601 3.49021 -8.68326 0.0918153 13.8427 8.2742 -12.8672 -1.44639 20.6638 30.1905 0.986096 -0.653912 -0.0112835 0.0239015 -1.00993 0.654015 0 0.997444 -0.65391 -0.0114133 2.40276e-006 -0.997382 0.654015 0 
-0.10135 -0.0601729 0.0538309 -3.11386e-013 8.9395e-008 -5.10888e-006 0 -0 0 0 -0 0 0 -0 0 -0.713372 0.291276 -5.13866e-011 7.54093 -33.3031 13.6405 -8.86528 -29.8955 -98.445 -1.27426 -8.70357 0.404909 -27.5605 -21.5864 106.421 -7.48048 -7.22872 0.359187 -7.00922 -0.766388 -1.05378 4.72541 -4.46271 -1.39298 -3.41729 8.71841 0.0688695 -13.7112 -8.22532 12.9011 1.57409 -20.5968 -30.2417 -7.54093 33.3031 13.6405 8.86528 29.8955 98.445 -1.27426 8.70357 -0.404909 27.5605 21.5864 106.421 7.48048 7.22872 -0.359187 7.00922 0.766388 1.05378 -4.72541 4.46271 1.39298 3.41729 -8.71841 -0.0688695 13.7112 8.22532 -12.9011 -1.57409 20.5968 30.2417 0.922686 -0.658102 -0.0105988 0.0240216 -0.946647 0.658193 0 0.934091 -0.6581 -0.0107298 2.41484e-006 -0.934032 0.658193 0 
-0.10135 -0.060173 0.0538342 1.7735e-013 8.32529e-008 -5.10898e-006 0 -0 0 0 -0 0 0 -0 0 -0.713352 0.291255 -1.58863e-014 7.54093 -33.3031 13.6397 -8.85952 -29.8817 -98.4498 -1.27426 -8.70357 0.404909 -27.5605 -21.5864 106.421 -7.48048 -7.22872 0.359187 -7.00922 -0.766388 -1.05378 4.72541 -4.46271 -1.39298 -3.41729 8.71841 0.0688695 -13.7112 -8.22532 12.9011 1.57409 -20.5968 -30.2417 -7.54093 33.3031 13.6397 8.85952 29.8817 98.4498 -1.27426 8.70357 -0.404909 27.5605 21.5864 106.421 7.48048 7.22872 -0.359187 7.00922 0.766388 1.05378 -4.72541 4.46271 1.39298 3.41729 -8.71841 -0.0688695 13.7112 8.22532 -12.9011 -1.57409 20.5968 30.2417 0.92289 -0.658116 -0.0106013 0.0240216 -0.94685 0.658207 0 0.934295 -0.658114 -0.0107324 2.41484e-008 -0.934234 0.658207 0 
-0.10135 -0.060173 0.0538344 -2.42146e-014 8.33178e-008 -5.10898e-006 0 -0 0 0 -0 0 0 -0 0 -0.713351 0.291255 -3.88256e-019 7.54093 -33.3031 13.6397 -8.85952 -29.8817 -98.4498 -1.27426 -8.70357 0.404909 -27.5605 -21.5864 106.421 -7.48048 -7.22872 0.359187 -7.00922 -0.766388 -1.05378 4.72541 -4.46271 -1.39298 -3.41729 8.71841 0.0688695 -13.7112 -8.22532 12.9011 1.57409 -20.5968 -30.2417 -7.54093 33.3031 13.6397 8.85952 29.8817 98.4498 -1.27426 8.70357 -0.404909 27.5605 21.5864 106.421 7.48048 7.22872 -0.359187 7.00922 0.766388 1.05378 -4.72541 4.46271 1.39298 3.41729 -8.71841 -0.0688695 13.7112 8.22532 -12.9011 -1.57409 20.5968 30.2417 0.922903 -0.658116 -0.0106015 0.0240216 -0.946863 0.658207 0 0.934308 -0.658114 -0.0107325 1.6862e-006 -0.934248 0.658207 0 
-0.10135 -0.060173 0.0538344 2.00611e-013 8.33183e-008 -5.10898e-006 0 -0 0 0 -0 0 0 -0 0 -0.713352 0.291255 -0 7.54093 -33.3031 13.6397 -8.85952 -29.8817 -98.4498 -1.27426 -8.70357 0.404909 -27.5605 -21.5864 106.421 -7.48048 -7.22872 0.359187 -7.00922 -0.766388 -1.05378 4.72541 -4.46271 -1.39298 -3.41729 8.71841 0.0688695 -13.7112 -8.22532 12.9011 1.57409 -20.5968 -30.2417 -7.54093 33.3031 13.6397 8.85952 29.8817 98.4498 -1.27426 8.70357 -0.404909 27.5605 21.5864 106.421 7.48048 7.22872 -0.359187 7.00922 0.766388 1.05378 -4.72541 4.46271 1.39298 3.41729 -8.71841 -0.0688695 13.7112 8.22532 -12.9011 -1.57409 20.5968 30.2417 0.922903 -0.658116 -0.0106015 0.0240216 -0.946863 0.658207 0 0.934308 -0.658114 -0.0107325 1.70755e-006 -0.934248 0.658207 0 
-0.10135 -0.060173 0.0538344 -1.61873e-013 8.33183e-008 -5.10898e-006 0 -0 0 0 -0 0 0 -0 0 -0.713352 0.291255 -3.88256e-019 7.54093 -33.3031 13.6397 -8.85952 -29.8817 -98.4498 -1.27426 -8.70357 0.404909 -27.5605 -21.5864 106.421 -7.48048 -7.22872 0.359187 -7.00922 -0.766388 -1.05378 4.72541 -4.46271 -1.39298 -3.41729 8.71841 0.0688695 -13.7112 -8.22532 12.9011 1.57409 -20.5968 -30.2417 -7.54093 33.3031 13.6397 8.85952 29.8817 98.4498 -1.27426 8.70357 -0.404909 27.5605 21.5864 106.421 7.48048 7.22872 -0.359187 7.00922 0.766388 1.05378 -4.72541 4.46271 1.39298 3.41729 -8.71841 -0.0688695 13.7112 8.22532 -12.9011 -1.57409 20.5968 30.2417 0.922903 -0.658116 -0.0106015 0.0240216 -0.946864 0.658207 0 0.934308 -0.658114 -0.0107325 2.98821e-008 -0.934248 0.658207 0 
-0.10135 -0.060173 0.0538344 3.16105e-013 8.33183e-008 -5.10898e-006 0 -0 0 0 -0 0 0 -0 0 -0.713352 0.291255 -0 7.54093 -33.3031 13.6397 -8.85952 -29.8817 -98.4498 -1.27426 -8.70357 0.404909 -27.5605 -21.5864 106.421 -7.48048 -7.22872 0.359187 -7.00922 -0.766388 -1.05378 4.72541 -4.46271 -1.39298 -3.41729 8.71841 0.0688695 -13.7112 -8.22532 12.9011 1.57409 -20.5968 -30.2417 -7.54093 33.3031 13.6397 8.85952 29.8817 98.4498 -1.27426 8.70357 -0.404909 27.5605 21.5864 106.421 7.48048 7.22872 -0.359187 7.00922 0.766388 1.05378 -4.72541 4.46271 1.39298 3.41729 -8.71841 -0.0688695 13.7112 8.22532 -12.9011 -1.57409 20.5968 30.2417 0.922903 -0.658116 -0.0106015 0.0240216 -0.946864 0.658207 0 0.934308 -0.658114 -0.0107325 2.77501e-006 -0.934247 0.658207 0 
-0.10135 -0.060173 0.0538344 4.45414e-013 8.33183e-008 -5.10898e-006 0 -0 0 0 -0 0 0 -0 0 -0.713352 0.291255 -3.88256e-019 7.54093 -33.3031 13.6397 -8.85952 -29.8817 -98.4498 -1.27426 -8.70357 0.404909 -27.5605 -21.5864 106.421 -7.48048 -7.22872 0.359187 -7.00922 -0.766388 -1.05378 4.72541 -4.46271 -1.39298 -3.41729 8.71841 0.0688695 -13.7112 -8.22532 12.9011 1.57409 -20.5968 -30.2417 -7.54093 33.3031 13.6397 8.85952 29.8817 98.4498 -1.27426 8.70357 -0.404909 27.5605 21.5864 106.421 7.48048 7.22872 -0.359187 7.00922 0.766388 1.05378 -4.72541 4.46271 1.39298 3.41729 -8.71841 -0.0688695 13.7112 8.22532 -12.9011 -1.57409 20.5968 30.2417 0.922903 -0.658116 -0.0106015 0.0240216 -0.946864 0.658207 0 0.934307 -0.658114 -0.0107325 1.73284e-006 -0.934248 0.658207 0 
-0.10135 -0.060173 0.0538344 -5.12231e-013 8.33183e-008 -5.10898e-006 0 -0 0 0 -0 0 0 -0 0 -0.713352 0.291255 -0 7.54093 -33.3031 13.6397 -8.85952 -29.8817 -98.4498 -1.27426 -8.70357 0.404909 -27.5605 -21.5864 106.421 -7.48048 -7.22872 0.359187 -7.00922 -0.766388 -1.05378 4.72541 -4.46271 -1.39298 -3.41729 8.71841 0.0688695 -13.7112 -8.22532 12.9011 1.57409 -20.5968 -30.2417 -7.54093 33.3031 13.6397 8.85952 29.8817 98.4498 -1.27426 8.70357 -0.404909 27.5605 21.5864 106.421 7.48048 7.22872 -0.359187 7.00922 0.766388 1.05378 -4.72541 4.46271 1.39298 3.41729 -8.71841 -0.0688695 13.7112 8.22532 -12.9011 -1.57409 20.5968 30.2417 0.922903 -0.658116 -0.0106015 0.0240216 -0.946864 0.658207 0 0.934308 -0.658114 -0.0107325 1.70755e-006 -0.934248 0.658207 0 
-0.10135 -0.060173 0.0538344 -8.57384e-014 8.33183e-008 -5.10898e-006 0 -0 0 0 -0 0 0 -0 0 -0.713352 0.291255 -0 7.54093 -33.3031 13.6397 -8.85952 -29.8817 -98.4498 -1.27426 -8.70357 0.404909 -27.5605 -21.5864 106.421 -7.48048 -7.22872 0.359187 -7.00922 -0.766388 -1.05378 4.72541 -4.46271 -1.39298 -3.41729 8.71841 0.0688695 -13.7112 -8.22532 12.9011 1.57409 -20.5968 -30.2417 -7.54093 33.3031 13.6397 8.85952 29.8817 98.4498 -1.27426 8.70357 -0.404909 27.5605 21.5864 106.421 7.48048 7.22872 -0.359187 7.00922 0.766388 1.05378 -4.72541 4.46271 1.39298 3.41729 -8.71841 -0.0688695 13.7112 8.22532 -12.9011 -1.57409 20.5968 30.2417 0.922903 -0.658116 -0.0106015 0.0240216 -0.946864 0.658207 0 0.934308 -0.658114 -0.0107325 2.41484e-006 -0.934249 0.658207 0 
-0.10135 -0.060173 0.0538344 -4.31226e-013 8.33183e-008 -5.10898e-006 0 -0 0 0 -0 0 0 -0 0 -0.713352 0.291255 -0 7.54093 -33.3031 13.6397 -8.85952 -29.8817 -98.4498 -1.27426 -8.70357 0.404909 -27.5605 -21.5864 106.421 -7.48048 -7.22872 0.359187 -7.00922 -0.766388 -1.05378 4.72541 -4.46271 -1.39298 -3.41729 8.71841 0.0688695 -13.7112 -8.22532 12.9011 1.57409 -20.5968 -30.2417 -7.54093 33.3031 13.6397 8.85952 29.8817 98.4498 -1.27426 8.70357 -0.404909 27.5605 21.5864 106.421 7.48048 7.22872 -0.359187 7.00922 0.766388 1.05378 -4.72541 4.46271 1.39298 3.41729 -8.71841 -0.0688695 13.7112 8.22532 -12.9011 -1.57409 20.5968 30.2417 0.922903 -0.658116 -0.0106015 0.0240216 -0.946864 0.658207 0 0.934308 -0.658114 -0.0107325 2.41484e-006 -0.934249 0.658207 0 
